# xmcd CD database file
#
# Track frame offsets:
#	150
#	15262
#	64625
#	82987
#	101687
#	127037
#	146200
#	167787
#	192125
#	206337
#	217962
#	242125
#	258137
#	280112
#	298512
#	313575
#
# Disc length: 4412 seconds
#
# Revision: 6
# Processed by: cddbd v1.5.2PL0 Copyright (c) Steve Scherf et al.
# Submitted via: CDex 1.51
#
DISCID=e0113a10
DTITLE=Various Artist - The Alltime Greatest Rock Classics 5 [Disc 2 of 2]
DYEAR=2003
DGENRE=Rock
TTITLE0=Jimmy Vaughan and The Fabulous Thunderbirds - Tuff Enuff
TTITLE1=The Allman Brothers Band - Nobody Knows
TTITLE2=Pat Benatar - Love Is A Battlefield
TTITLE3=Steve Lukather - Freedom
TTITLE4=Loverboy - Turn Me Loose
TTITLE5=Jann Arden - Insensitive
TTITLE6=Toni Childs - Let The Rain Come Down
TTITLE7=Boston - Long Time
TTITLE8=Cheap Trick - I Want You To Want Me
TTITLE9=Judas Priest - Breaking The Law
TTITLE10=Kansas - Carry On Wayward Son
TTITLE11=Marillion - Kayleigh
TTITLE12=Reo Speedwagon - Can't Fight This Feeling
TTITLE13=Lake - On The Run
TTITLE14=Exile - Kiss You All Over
TTITLE15=Liquido - Narcotic
EXTD=YEAR: 2003
EXTT0=
EXTT1=
EXTT2=
EXTT3=
EXTT4=
EXTT5=
EXTT6=
EXTT7=
EXTT8=
EXTT9=
EXTT10=
EXTT11=
EXTT12=
EXTT13=
EXTT14=
EXTT15=
PLAYORDER=
